<svg id="Capa_1" enable-background="new 0 0 512 512" height="512" viewBox="0 0 512 512" width="512" xmlns="http://www.w3.org/2000/svg"><g><g><circle cx="256" cy="256" fill="#a0b4cd" r="160"/></g><g><path d="m392 256c0 37.555-15.223 71.556-39.833 96.166l16.971 16.971c28.954-28.955 46.862-68.954 46.862-113.137 0-88.365-71.634-160-160-160v24c75.111 0 136 60.889 136 136z" fill="#cddceb"/></g><g><path d="m256 8c-136.967 0-248 111.033-248 248s111.033 248 248 248 248-111.033 248-248-111.033-248-248-248zm-150.869 119.758 52.025 52.026c5.235 5.235 6.042 13.284 2.295 19.669-5.133 8.746-9.105 18.245-11.719 28.302-1.857 7.147-8.127 12.245-15.511 12.245h-73.573c-9.747 0-17.405-8.673-15.87-18.298 5.437-34.073 18.834-65.477 38.239-92.261 5.707-7.877 17.236-8.561 24.114-1.683zm-46.483 144.242h73.574c7.384 0 13.653 5.098 15.511 12.245 2.613 10.057 6.586 19.556 11.719 28.302 3.747 6.385 2.94 14.434-2.295 19.669l-52.026 52.026c-6.878 6.878-18.407 6.194-24.114-1.683-19.405-26.784-32.802-58.188-38.239-92.261-1.536-9.625 6.123-18.298 15.87-18.298zm163.054 197.222c-34.073-5.437-65.478-18.834-92.261-38.24-7.877-5.707-8.561-17.236-1.683-24.113l52.026-52.026c5.235-5.235 13.285-6.042 19.67-2.295 8.746 5.133 18.246 9.106 28.303 11.719 7.147 1.857 12.245 8.127 12.245 15.511v73.574c-.002 9.747-8.675 17.406-18.3 15.87zm6.053-321.49c-10.057 2.613-19.556 6.586-28.302 11.719-6.385 3.747-14.435 2.94-19.67-2.295l-52.025-52.025c-6.878-6.878-6.194-18.406 1.683-24.113 26.783-19.406 58.188-32.803 92.261-38.24 9.625-1.536 18.298 6.123 18.298 15.869v73.574c0 7.385-5.098 13.654-12.245 15.511zm225.597 92.268h-73.574c-7.384 0-13.653-5.098-15.511-12.245-2.613-10.057-6.586-19.556-11.719-28.302-3.747-6.385-2.94-14.435 2.295-19.67l52.025-52.026c6.878-6.878 18.407-6.194 24.114 1.683 19.405 26.783 32.802 58.188 38.239 92.261 1.537 9.626-6.122 18.299-15.869 18.299zm-163.054-197.222c34.073 5.437 65.478 18.834 92.261 38.24 7.877 5.707 8.561 17.236 1.683 24.113l-52.025 52.025c-5.235 5.235-13.284 6.042-19.669 2.295-8.746-5.133-18.246-9.105-28.303-11.719-7.147-1.857-12.245-8.127-12.245-15.511v-73.574c0-9.746 8.673-17.405 18.298-15.869zm-18.298 410.575v-73.574c0-7.384 5.098-13.653 12.245-15.511 10.057-2.614 19.557-6.586 28.303-11.719 6.385-3.747 14.435-2.94 19.67 2.295l52.026 52.026c6.878 6.878 6.194 18.407-1.683 24.113-26.783 19.405-58.189 32.803-92.261 38.24-9.627 1.535-18.3-6.124-18.3-15.87zm134.869-69.111-52.026-52.026c-5.235-5.235-6.042-13.284-2.295-19.669 5.133-8.746 9.106-18.246 11.719-28.302 1.857-7.147 8.127-12.245 15.511-12.245h73.574c9.747 0 17.406 8.673 15.87 18.298-5.436 34.073-18.834 65.478-38.239 92.261-5.707 7.877-17.236 8.561-24.114 1.683z" fill="#cddceb"/></g><g><path d="m480 256c0 44.355-12.927 85.669-35.179 120.451-6.784 10.604-4.117 24.673 5.781 32.45l.358.281c33.188-42.18 53.04-95.347 53.04-153.182 0-136.967-111.033-248-248-248v.446c0 12.958 10.011 23.401 22.903 24.71 112.953 11.471 201.097 106.864 201.097 222.844z" fill="#fff"/></g><g fill="#6e829b"><path d="m282.232 155.476c9.209 2.393 18.046 6.052 26.266 10.875 3.901 2.29 8.214 3.406 12.479 3.406 6.215 0 12.325-2.372 16.897-6.943l52.023-52.025c5.007-5.006 7.557-11.928 6.996-18.992-.55-6.926-4.063-13.216-9.642-17.257-28.246-20.465-61.336-34.18-95.694-39.662-6.82-1.084-13.776.882-19.075 5.402-5.39 4.598-8.482 11.293-8.482 18.367v73.574c0 10.902 7.497 20.465 18.232 23.255zm44.328-3.977c-2.601 2.601-6.606 3.024-9.965 1.053-9.493-5.571-19.7-9.798-30.339-12.562-3.684-.957-6.257-4.151-6.257-7.768v-26.3c24.035 3.83 46.215 13.292 65.117 27.02zm-43.693-99.048c.873-.745 2.586-1.872 4.952-1.872.389 0 .795.031 1.218.099 31.89 5.088 62.605 17.819 88.828 36.818 2.434 1.764 2.974 4.243 3.078 5.564.189 2.388-.67 4.725-2.359 6.413l-22.042 22.042c-21.987-16.477-48.124-27.702-76.542-31.786v-31.082c0-2.383 1.045-4.641 2.867-6.196z"/><path d="m166.351 308.498c-4.823-8.22-8.482-17.057-10.875-26.267-2.79-10.734-12.353-18.231-23.254-18.231h-73.575c-7.074 0-13.77 3.092-18.369 8.483-4.521 5.3-6.489 12.252-5.4 19.075 5.483 34.357 19.196 67.448 39.66 95.693 4.041 5.578 10.331 9.092 17.257 9.642.643.051 1.284.076 1.924.076 6.385 0 12.519-2.521 17.069-7.07l52.024-52.026c7.711-7.709 9.167-19.789 3.539-29.375zm-66.877 70.087c-1.688 1.688-4.026 2.553-6.413 2.358-1.321-.104-3.802-.645-5.565-3.078-18.998-26.222-31.729-56.938-36.816-88.828-.479-2.999.905-5.153 1.772-6.17 1.555-1.822 3.812-2.867 6.196-2.867h31.078c4.084 28.419 15.3 54.564 31.781 76.551zm52.025-52.026-18.545 18.545c-13.727-18.903-23.211-41.07-27.041-65.104h26.309c3.616 0 6.811 2.573 7.768 6.256 2.765 10.64 6.991 20.847 12.562 30.34v.001c1.971 3.358 1.549 7.361-1.053 9.962z"/><path d="m437.02 74.98c-48.353-48.351-112.64-74.98-181.02-74.98s-132.667 26.629-181.02 74.98c-48.351 48.353-74.98 112.64-74.98 181.02s26.629 132.667 74.98 181.02c48.353 48.351 112.64 74.98 181.02 74.98s132.667-26.629 181.02-74.98c48.351-48.353 74.98-112.64 74.98-181.02s-26.629-132.667-74.98-181.02zm-11.314 350.726c-45.33 45.33-105.6 70.294-169.706 70.294s-124.376-24.964-169.706-70.294-70.294-105.6-70.294-169.706 24.964-124.376 70.294-169.706 105.6-70.294 169.706-70.294 124.376 24.964 169.706 70.294 70.294 105.6 70.294 169.706-24.964 124.376-70.294 169.706z"/><path d="m239.518 40.279c-5.299-4.522-12.245-6.485-19.076-5.402-34.357 5.482-67.447 19.197-95.693 39.662-5.577 4.041-9.091 10.33-9.641 17.255-.561 7.064 1.988 13.988 6.994 18.994l52.025 52.025c4.572 4.572 10.681 6.943 16.896 6.943 4.265 0 8.579-1.117 12.479-3.406 8.219-4.823 17.056-8.482 26.267-10.875 10.734-2.79 18.231-12.353 18.231-23.254v-73.574c0-7.074-3.092-13.769-8.482-18.368zm-7.518 91.943c0 3.616-2.573 6.811-6.256 7.768-10.64 2.765-20.848 6.991-30.34 12.562-3.361 1.971-7.365 1.548-9.964-1.053l-18.54-18.54c18.901-13.726 41.066-23.21 65.099-27.04v26.303zm0-42.502c-28.42 4.084-54.562 15.307-76.549 31.79l-22.035-22.036c-1.689-1.688-2.549-4.025-2.359-6.413.105-1.321.645-3.801 3.078-5.564 26.223-18.999 56.938-31.731 88.827-36.818.424-.067.83-.099 1.219-.099 2.366 0 4.079 1.127 4.952 1.872 1.822 1.555 2.867 3.812 2.867 6.196z"/><path d="m58.647 248h73.574c10.902 0 20.465-7.498 23.254-18.233 2.393-9.209 6.052-18.045 10.875-26.265 5.626-9.586 4.172-21.666-3.537-29.375l-52.025-52.026c-5.007-5.006-11.936-7.55-18.993-6.994-6.926.55-13.216 4.063-17.257 9.642-20.464 28.245-34.178 61.336-39.66 95.693-1.089 6.823.88 13.775 5.4 19.075 4.6 5.391 11.295 8.483 18.369 8.483zm92.852-62.559c2.601 2.6 3.024 6.604 1.053 9.963-5.571 9.492-9.798 19.7-12.562 30.339-.957 3.684-4.151 6.257-7.768 6.257h-26.312c3.83-24.034 13.316-46.203 27.043-65.105zm-100.82 37.522c5.088-31.89 17.818-62.607 36.816-88.828 1.764-2.434 4.244-2.974 5.565-3.078.218-.018.435-.026.651-.026 2.157 0 4.228.851 5.762 2.385l22.038 22.038c-16.48 21.987-27.704 48.128-31.787 76.547h-31.077c-2.384 0-4.642-1.045-6.196-2.867-.867-1.018-2.251-3.172-1.772-6.171z"/><path d="m345.649 203.503v.001c4.823 8.217 8.481 17.053 10.875 26.263 2.79 10.735 12.353 18.233 23.254 18.233h73.574c7.074 0 13.77-3.092 18.369-8.483 4.52-5.3 6.489-12.252 5.4-19.075-5.483-34.358-19.197-67.449-39.661-95.693-4.04-5.577-10.329-9.091-17.255-9.642-7.056-.555-13.987 1.988-18.994 6.994l-52.025 52.026c-7.708 7.709-9.163 19.789-3.537 29.376zm66.877-70.088c1.688-1.688 4.018-2.549 6.413-2.358 1.321.105 3.802.645 5.564 3.078 18.998 26.222 31.729 56.938 36.817 88.828.479 2.999-.905 5.153-1.772 6.17-1.555 1.822-3.812 2.867-6.196 2.867h-31.079c-4.084-28.419-15.304-54.56-31.785-76.546zm-52.025 52.026 18.543-18.543c13.725 18.902 23.197 41.07 27.027 65.102h-26.293c-3.616 0-6.81-2.573-7.768-6.258-2.766-10.64-6.992-20.847-12.562-30.338-1.97-3.359-1.548-7.363 1.053-9.963z"/><path d="m453.353 264h-73.574c-10.901 0-20.464 7.497-23.254 18.231v.001c-2.393 9.209-6.052 18.046-10.875 26.265-5.628 9.587-4.173 21.667 3.537 29.376l52.025 52.026c4.551 4.55 10.685 7.07 17.069 7.07.64 0 1.282-.025 1.925-.076 6.926-.551 13.215-4.064 17.255-9.642 20.464-28.244 34.179-61.335 39.661-95.693 1.089-6.823-.88-13.775-5.4-19.075-4.6-5.391-11.295-8.483-18.369-8.483zm-92.853 62.559c-2.601-2.601-3.023-6.603-1.052-9.963 5.571-9.493 9.798-19.7 12.562-30.34v.001c.957-3.684 4.151-6.257 7.768-6.257h26.31c-3.83 24.035-13.307 46.209-27.034 65.112zm100.821-37.522c-5.088 31.891-17.819 62.606-36.817 88.828-1.763 2.434-4.243 2.974-5.564 3.078-2.383.196-4.726-.67-6.413-2.358l-22.042-22.042c16.479-21.988 27.706-48.125 31.79-76.543h31.078c2.384 0 4.642 1.045 6.196 2.867.867 1.017 2.251 3.171 1.772 6.17z"/><path d="m337.874 349.186c-7.71-7.709-19.79-9.164-29.376-3.538h-.001c-8.218 4.824-17.055 8.483-26.266 10.876-10.734 2.791-18.231 12.353-18.231 23.254v73.574c0 7.074 3.092 13.77 8.482 18.368 4.342 3.705 9.793 5.695 15.375 5.695 1.23 0 2.468-.097 3.701-.293 34.358-5.482 67.449-19.197 95.694-39.662 5.577-4.041 9.091-10.33 9.641-17.255.561-7.064-1.988-13.988-6.994-18.994zm-57.874 30.592c0-3.616 2.573-6.81 6.256-7.768 10.641-2.765 20.849-6.992 30.341-12.563 3.358-1.973 7.362-1.549 9.963 1.054l18.553 18.553c-18.902 13.727-41.079 23.188-65.112 27.017v-26.293zm100.944 39.162c-.105 1.321-.645 3.801-3.078 5.564-26.223 18.999-56.939 31.73-88.828 36.818-3.005.479-5.154-.906-6.171-1.773-1.822-1.555-2.867-3.812-2.867-6.196v-31.074c28.419-4.084 54.558-15.31 76.544-31.792l22.041 22.041c1.688 1.687 2.549 4.024 2.359 6.412z"/><path d="m229.769 356.524c-.001 0-.001 0-.001 0-9.21-2.393-18.047-6.052-26.266-10.876-9.588-5.626-21.667-4.17-29.376 3.538l-52.025 52.025c-5.006 5.006-7.555 11.93-6.994 18.994.55 6.925 4.063 13.214 9.641 17.255 28.245 20.465 61.336 34.18 95.695 39.662 1.232.196 2.47.293 3.7.293 5.581 0 11.033-1.991 15.375-5.695 5.391-4.599 8.482-11.294 8.482-18.368v-73.574c0-10.901-7.497-20.463-18.231-23.254zm2.231 96.829c0 2.384-1.045 4.642-2.867 6.196-1.017.868-3.173 2.249-6.17 1.773-31.891-5.088-62.607-17.819-88.829-36.818-2.434-1.764-2.973-4.243-3.078-5.564-.189-2.388.671-4.725 2.359-6.413l22.038-22.038c21.988 16.481 48.128 27.704 76.547 31.788zm0-47.273c-24.034-3.831-46.206-13.303-65.108-27.03l18.549-18.549c1.51-1.51 3.491-2.286 5.546-2.286 1.485 0 3.009.405 4.417 1.232 9.492 5.571 19.7 9.799 30.34 12.563 3.684.957 6.257 4.151 6.257 7.768v26.302z"/></g><g><path d="m256.004 512c-68.38 0-132.667-26.629-181.02-74.98-48.351-48.353-74.98-112.64-74.98-181.02 0-31.282 5.581-61.845 16.587-90.84 1.569-4.13 6.186-6.207 10.318-4.641 4.131 1.568 6.208 6.188 4.641 10.318-10.316 27.176-15.546 55.828-15.546 85.163 0 64.106 24.965 124.376 70.294 169.706 45.33 45.33 105.6 70.294 169.706 70.294 18.303 0 36.537-2.066 54.197-6.143 4.297-.999 8.601 1.691 9.594 5.996.994 4.305-1.69 8.601-5.996 9.594-18.838 4.348-38.283 6.553-57.795 6.553z" fill="#283246"/></g><g><path d="m227.779 313.076c-2.102 0-4.205-.533-6.094-1.603-3.87-2.191-6.274-6.315-6.274-10.763v-89.422c0-4.447 2.404-8.571 6.274-10.763 3.872-2.191 8.646-2.131 12.458.156l74.519 44.711c3.76 2.256 6.005 6.221 6.005 10.606 0 4.386-2.245 8.351-6.006 10.606l-74.517 44.711c-1.953 1.174-4.158 1.761-6.365 1.761zm3.632-95.374v76.596l63.829-38.298z" fill="#283246"/></g></g></svg>